<?xml version="1.0" standalone="no"?>
<!DOCTYPE svg PUBLIC "-//W3C//DTD SVG 20010904//EN"
 "http://www.w3.org/TR/2001/REC-SVG-20010904/DTD/svg10.dtd">
<svg version="1.0" xmlns="http://www.w3.org/2000/svg"
 width="987.000000pt" height="987.000000pt" viewBox="0 0 987.000000 987.000000"
 preserveAspectRatio="xMidYMid meet">
<metadata>
Created by potrace 1.14, written by Peter Selinger 2001-2017
</metadata>
<g transform="translate(0.000000,987.000000) scale(0.100000,-0.100000)"
fill="#000000" stroke="none">
<path d="M4560 9848 c-47 -11 -96 -26 -110 -33 -66 -35 -88 -45 -131 -60 -26
-9 -57 -25 -70 -35 -12 -11 -27 -20 -33 -20 -6 0 -27 -8 -46 -19 -19 -10 -46
-22 -60 -26 -28 -9 -80 -46 -121 -87 -15 -16 -35 -28 -45 -28 -9 0 -14 -3 -11
-7 12 -11 -25 -43 -49 -43 -13 0 -25 -4 -29 -9 -3 -5 -19 -12 -35 -16 -17 -4
-30 -12 -30 -18 0 -7 -11 -17 -25 -24 -21 -9 -27 -8 -34 4 -11 20 -30 9 -25
-15 8 -33 -12 -46 -88 -53 -54 -5 -88 -15 -131 -39 -37 -20 -64 -29 -77 -25
-28 9 -60 -3 -60 -22 0 -23 -29 -53 -46 -46 -8 3 -14 13 -14 22 0 31 -21 43
-42 24 -24 -22 -48 -9 -61 33 -18 54 -47 69 -47 23 0 -14 -7 -19 -30 -19 -16
0 -30 -4 -30 -9 0 -5 -18 -16 -39 -24 -22 -9 -42 -21 -45 -26 -4 -6 -13 -8
-20 -5 -8 3 -24 -7 -36 -24 -13 -17 -30 -32 -40 -35 -10 -2 -30 -28 -46 -56
-16 -28 -32 -51 -36 -51 -5 0 -8 -6 -8 -14 0 -7 -7 -19 -15 -26 -19 -16 -19
-30 -1 -30 27 0 26 -18 -4 -51 -16 -19 -30 -44 -30 -56 0 -12 -6 -25 -12 -29
-15 -10 -131 -17 -256 -16 -75 1 -96 -2 -110 -16 -9 -9 -43 -26 -75 -37 -31
-10 -57 -23 -57 -27 0 -4 -17 -10 -37 -13 -63 -10 -83 -22 -83 -50 0 -17 -5
-25 -18 -25 -9 0 -23 -9 -30 -20 -9 -15 -19 -19 -37 -14 -22 5 -25 3 -25 -19
0 -14 -5 -29 -10 -32 -6 -4 -8 -10 -5 -15 3 -4 -3 -7 -13 -6 -11 1 -18 -7 -20
-24 -4 -35 -23 -80 -33 -80 -5 0 -9 -15 -9 -34 0 -22 -9 -45 -26 -65 -22 -26
-25 -39 -23 -88 3 -52 0 -59 -20 -69 -12 -6 -29 -21 -37 -33 -9 -12 -19 -19
-24 -16 -5 3 -18 -4 -29 -16 -12 -13 -26 -19 -36 -16 -9 4 -33 -7 -61 -28 -25
-19 -50 -35 -55 -35 -5 0 -8 -26 -8 -57 1 -32 -5 -76 -14 -98 -8 -22 -12 -55
-9 -73 6 -42 -16 -112 -40 -130 -10 -7 -18 -20 -18 -28 0 -9 -11 -30 -24 -47
-14 -18 -28 -45 -32 -62 -6 -25 -47 -98 -64 -115 -5 -5 -15 -35 -71 -220 -18
-58 -41 -117 -51 -132 -10 -14 -18 -36 -18 -47 0 -12 -4 -21 -10 -21 -5 0 -10
-4 -10 -10 0 -5 -9 -19 -20 -30 -11 -11 -20 -29 -20 -40 0 -12 -10 -25 -23
-31 -12 -6 -28 -23 -35 -38 -17 -38 -160 -171 -184 -171 -4 0 -15 -14 -23 -31
-9 -16 -24 -33 -34 -37 -32 -13 -100 -101 -111 -145 -12 -50 -40 -107 -51
-107 -14 0 -42 -73 -40 -105 1 -23 -6 -36 -26 -51 -30 -22 -120 -54 -152 -54
-10 0 -48 -7 -83 -16 -45 -12 -105 -17 -210 -17 l-148 1 0 -24 c0 -29 172
-202 266 -269 80 -56 119 -68 173 -56 33 7 43 6 48 -5 7 -20 7 -21 -102 -124
-55 -52 -111 -111 -124 -130 -14 -19 -27 -37 -31 -40 -3 -3 -14 -25 -25 -50
-11 -24 -48 -73 -83 -110 -103 -106 -112 -143 -49 -200 53 -49 122 -64 263
-56 108 5 122 4 136 -11 26 -31 88 -150 88 -170 0 -10 -11 -54 -25 -98 -14
-44 -32 -105 -41 -135 -9 -30 -21 -67 -28 -81 -7 -14 -23 -81 -35 -150 -12
-68 -26 -143 -31 -166 -22 -98 -22 -146 -1 -207 13 -37 19 -72 16 -95 -7 -46
7 -70 29 -52 9 8 16 21 16 30 0 33 71 224 102 277 36 60 71 85 91 65 12 -11
42 -226 53 -381 5 -60 11 -80 29 -100 25 -27 44 -92 45 -151 0 -20 6 -42 14
-48 8 -7 27 -47 42 -89 32 -88 126 -238 180 -286 l37 -33 -8 -89 c-4 -49 -7
-165 -6 -259 2 -170 2 -170 28 -192 24 -19 25 -24 14 -51 -14 -33 -5 -102 12
-102 6 0 57 23 114 50 56 28 109 50 118 50 8 0 28 -14 45 -30 17 -17 37 -30
45 -30 9 0 15 -10 15 -25 0 -14 8 -29 20 -35 11 -6 20 -16 20 -23 0 -7 14 -25
31 -40 33 -29 31 -43 -9 -59 l-27 -10 25 -10 c16 -6 31 -5 46 3 27 14 61 4 69
-20 3 -10 31 -30 63 -46 78 -37 88 -49 103 -108 7 -28 20 -65 31 -82 10 -16
18 -38 18 -48 0 -10 13 -26 30 -35 17 -10 30 -25 30 -37 0 -28 11 -42 43 -54
15 -6 33 -23 40 -38 21 -49 29 -51 57 -20 29 33 45 30 61 -10 5 -13 15 -23 22
-20 6 2 30 -10 52 -28 64 -52 110 -67 204 -68 71 -1 85 2 97 18 20 27 12 40
-25 40 -46 0 -39 36 9 51 19 6 36 19 38 28 2 9 8 16 13 16 14 0 89 -49 89 -59
0 -4 16 -29 36 -55 34 -45 38 -47 73 -41 32 5 41 2 64 -21 15 -15 27 -32 27
-38 0 -24 73 -96 97 -96 17 0 29 -10 41 -31 9 -18 32 -46 51 -63 19 -17 54
-51 77 -76 l43 -44 -17 -29 c-9 -16 -75 -85 -146 -153 -102 -97 -134 -122
-150 -118 -25 6 -178 -62 -222 -99 -16 -13 -40 -28 -54 -32 -64 -18 -338 -167
-404 -219 -22 -17 -50 -35 -63 -41 -12 -5 -55 -42 -95 -81 -85 -82 -153 -201
-194 -336 -25 -86 -25 -90 3 -211 l15 -67 3104 0 c3058 0 3103 0 3114 19 5 11
10 32 10 48 0 33 -100 215 -147 267 -63 70 -330 225 -458 267 -22 7 -58 26
-81 41 -41 27 -217 118 -229 118 -3 0 -43 21 -88 47 -45 25 -113 63 -152 84
-38 20 -99 52 -135 71 -40 22 -86 38 -119 41 -55 6 -81 20 -81 42 0 16 27 28
35 16 6 -11 45 -2 45 11 0 5 5 6 10 3 6 -3 15 -3 21 1 6 4 30 8 53 9 73 4 164
31 196 59 17 14 38 26 46 26 17 0 74 97 74 126 0 11 -12 31 -26 45 -33 30 -28
74 14 127 17 22 32 55 36 82 11 65 16 80 29 80 11 1 51 66 158 264 27 50 53
94 58 99 5 5 29 12 53 14 25 3 52 14 65 27 12 11 35 33 50 48 32 31 48 35 68
14 30 -29 335 -7 335 24 0 4 8 10 18 13 11 2 21 17 25 35 4 20 46 74 122 157
63 69 115 130 115 134 0 5 13 23 28 41 l29 33 6 -36 c3 -19 1 -54 -4 -77 -12
-51 9 -92 57 -115 46 -21 63 -19 75 11 11 32 8 37 -26 37 -21 0 -25 4 -25 27
0 20 18 46 65 96 36 38 64 76 63 84 -4 31 25 156 43 186 10 17 20 44 22 60 5
35 27 84 39 84 4 0 8 8 8 18 0 10 16 33 36 51 19 19 48 59 63 90 52 104 64
126 81 146 10 11 35 54 55 96 33 68 41 78 76 89 24 8 50 27 66 49 15 20 32 39
39 44 25 15 52 75 79 177 21 81 37 117 66 156 22 28 39 56 39 61 0 6 7 17 16
24 15 12 16 11 10 -9 -5 -16 -3 -22 7 -22 8 0 17 12 20 27 2 16 10 42 16 58 6
17 13 42 16 57 3 15 13 34 22 44 16 15 18 15 39 -11 17 -22 28 -27 50 -22 40
7 74 -11 74 -40 0 -20 4 -23 20 -18 14 5 30 -4 56 -29 36 -35 37 -36 32 -101
-5 -57 -3 -65 13 -70 26 -9 35 -1 43 36 5 26 10 30 27 26 16 -4 19 -2 14 11
-4 9 -6 60 -6 112 2 106 -2 128 -53 320 -107 401 -97 349 -91 515 3 83 6 216
6 297 -1 130 2 158 29 258 30 118 30 141 0 133 -16 -4 -22 5 -36 53 -9 33 -21
65 -27 72 -5 7 -7 15 -3 19 3 4 26 -16 51 -43 34 -37 47 -46 54 -35 16 25 -11
68 -68 106 -50 33 -90 85 -91 121 0 15 -50 105 -67 122 -14 15 -18 62 -4 62 4
0 20 -10 34 -22 58 -52 106 -88 116 -88 6 0 20 -9 31 -20 11 -11 30 -22 43
-25 31 -8 32 20 3 49 l-20 20 39 8 c22 5 45 6 52 4 20 -8 15 -57 -8 -82 -20
-21 -21 -28 -11 -76 11 -59 7 -79 -15 -71 -11 4 -14 2 -11 -8 3 -8 15 -13 28
-11 13 1 33 -6 44 -16 67 -60 86 -28 86 143 0 133 -16 226 -46 272 -7 12 -14
29 -14 37 0 10 -20 21 -55 31 -47 14 -55 20 -55 40 0 35 20 42 41 14 17 -22
18 -23 37 -6 10 9 24 17 30 17 6 0 27 8 47 17 l35 17 0 79 0 79 -67 70 c-38
39 -90 87 -118 108 -98 74 -155 153 -155 217 0 18 -9 70 -21 114 -17 67 -20
97 -14 169 6 74 4 93 -13 131 -10 24 -22 52 -26 63 -3 10 -25 47 -48 82 -36
54 -49 66 -88 79 -50 17 -124 86 -177 165 -17 25 -53 70 -81 100 -28 30 -54
66 -57 79 -4 14 -15 37 -26 52 -10 15 -19 31 -19 35 0 4 -15 24 -34 43 -78 82
-94 102 -119 156 -15 30 -27 59 -27 64 0 5 -7 14 -15 21 -8 7 -19 26 -23 43
-9 36 -48 61 -200 128 -30 14 -42 24 -38 34 3 8 1 15 -3 15 -5 0 -19 16 -32
36 -25 41 -66 84 -79 84 -8 0 -68 60 -92 93 -8 11 -30 20 -55 22 -53 5 -104
31 -110 55 -4 16 -90 80 -109 80 -17 1 -65 50 -59 61 5 7 13 4 26 -7 17 -15
20 -15 50 3 l31 20 -22 21 c-17 15 -30 19 -56 15 -25 -4 -35 -1 -39 10 -4 9
-25 18 -53 22 -52 8 -96 37 -163 106 -35 37 -51 47 -67 42 -15 -4 -32 4 -56
25 -19 16 -56 37 -82 47 -27 9 -60 23 -74 30 -14 7 -30 10 -37 8 -6 -2 -18 6
-27 18 -13 20 -25 22 -108 24 -51 1 -101 6 -111 10 -26 11 -63 49 -79 81 -8
17 -23 29 -38 31 -41 5 -50 11 -44 28 4 10 -2 18 -17 24 -13 5 -18 10 -11 10
6 1 12 6 12 11 0 7 -6 7 -19 0 -23 -12 -71 -13 -71 -2 0 5 -15 16 -34 24 -18
9 -47 35 -62 57 -16 22 -36 43 -45 46 -9 3 -29 17 -44 31 -35 32 -115 57 -177
55 -47 -1 -119 27 -136 53 -9 13 -63 35 -115 46 -22 4 -53 21 -71 39 -18 17
-35 28 -39 25 -4 -4 -7 -3 -7 2 0 9 -27 18 -135 43 -27 7 -63 19 -80 28 -16 8
-64 17 -105 20 -68 4 -77 8 -100 34 -15 18 -41 34 -65 39 -22 6 -245 9 -495 9
-419 -1 -462 -2 -540 -21z m-2850 -1974 c0 -8 -6 -14 -14 -14 -9 0 -12 7 -9
20 6 22 23 18 23 -6z m-75 -73 c-10 -16 -25 -3 -25 22 0 20 1 20 16 5 9 -9 13
-21 9 -27z m7852 -1373 c21 -12 47 -31 58 -41 11 -10 36 -27 55 -37 38 -20
110 -84 110 -97 0 -4 -9 -19 -20 -33 -15 -20 -29 -25 -67 -27 -26 -1 -57 -3
-68 -5 -14 -2 -21 4 -25 22 -5 25 -30 40 -30 19 0 -8 -5 -7 -16 2 -8 7 -13 21
-11 31 3 11 -5 31 -20 48 -43 51 -54 140 -18 140 8 0 31 -10 52 -22z m-8947
-317 c24 -19 25 -19 52 1 25 17 29 18 34 3 8 -20 -14 -44 -82 -91 -48 -33 -58
-36 -105 -32 -28 3 -55 11 -59 18 -10 15 -1 52 15 65 7 6 15 20 19 33 6 19 14
22 54 22 31 0 56 -7 72 -19z m8920 -692 c0 -11 -4 -17 -10 -14 -5 3 -10 13
-10 21 0 8 5 14 10 14 6 0 10 -9 10 -21z m-13 -1053 c11 -13 24 -30 29 -39 5
-8 24 -32 43 -52 25 -28 34 -48 35 -74 1 -36 1 -36 -36 -33 -34 3 -38 0 -38
-21 0 -26 23 -52 38 -43 5 3 12 -13 16 -35 4 -23 14 -55 22 -71 9 -16 13 -32
11 -35 -7 -6 -47 20 -47 31 0 4 -12 22 -26 40 -80 99 -102 131 -113 167 -6 21
-16 39 -21 39 -5 0 -8 9 -7 21 1 18 3 18 13 5 11 -16 45 -22 56 -10 3 3 0 29
-8 57 -8 29 -14 58 -14 65 0 20 25 14 47 -12z m166 -401 c-3 -9 -8 -14 -10
-11 -3 3 -2 9 2 15 9 16 15 13 8 -4z m-570 -211 c12 -4 12 -11 0 -46 -8 -23
-19 -50 -25 -62 -6 -11 -12 -39 -13 -62 -1 -32 -10 -52 -35 -80 l-33 -39 6 40
c4 25 16 48 33 63 14 13 23 26 20 30 -4 3 -11 0 -16 -8 -8 -12 -10 -12 -15 1
-5 15 19 92 47 147 13 25 11 24 31 16z m-8050 -110 c10 -4 27 -25 39 -47 11
-23 43 -62 70 -87 l50 -46 5 -96 c6 -111 -2 -126 -49 -82 -69 66 -141 223
-140 306 1 21 -3 40 -9 43 -14 9 -11 28 4 21 6 -3 20 -9 30 -12z m3822 -890
c20 -31 9 -44 -36 -44 -37 0 -42 24 -11 49 14 11 27 21 28 21 1 0 9 -12 19
-26z m-85 -53 c0 -16 4 -31 10 -33 5 -1 12 -17 16 -34 5 -27 3 -33 -16 -39
-15 -5 -29 0 -46 16 -30 28 -32 59 -4 59 21 0 28 24 10 35 -17 10 -11 25 10
25 15 0 20 -7 20 -29z"/>
<path d="M480 6060 c0 -5 7 -7 15 -4 8 4 15 8 15 10 0 2 -7 4 -15 4 -8 0 -15
-4 -15 -10z"/>
<path d="M430 6040 c0 -5 5 -10 10 -10 6 0 10 5 10 10 0 6 -4 10 -10 10 -5 0
-10 -4 -10 -10z"/>
<path d="M6342 9598 c6 -18 28 -21 28 -4 0 9 -7 16 -16 16 -9 0 -14 -5 -12
-12z"/>
<path d="M6400 9560 c0 -5 5 -10 10 -10 6 0 10 5 10 10 0 6 -4 10 -10 10 -5 0
-10 -4 -10 -10z"/>
<path d="M6966 9348 c-10 -39 -7 -44 9 -14 17 33 18 36 6 36 -5 0 -11 -10 -15
-22z"/>
<path d="M7980 8735 c0 -17 2 -18 24 -9 23 9 20 24 -4 24 -11 0 -20 -7 -20
-15z"/>
</g>
</svg>
